<svg version="1.1" baseProfile="full" xmlns="http://www.w3.org/2000/svg" xmlns:xlink="http://www.w3.org/1999/xlink" xmlns:ev="http://www.w3.org/2001/xml-events" xml:space="preserve" x="0px" y="0px" width="15px" height="22px"  viewBox="0 0 15 22" preserveAspectRatio="none" shape-rendering="geometricPrecision">"<path fill="#2c2c2c" d="M11.5 2C10.6716 2 10 2.67157 10 3.5C10 4.32843 10.6716 5 11.5 5C12.3284 5 13 4.32843 13 3.5C13 2.67157 12.3284 2 11.5 2ZM8 3.5C8 1.567 9.567 0 11.5 0C13.433 0 15 1.567 15 3.5C15 5.433 13.433 7 11.5 7C10.7587 7 10.0712 6.76954 9.50533 6.37636L5.59933 9.50116C5.85417 9.94216 6 10.454 6 11C6 11.546 5.85417 12.0578 5.59933 12.4988L9.50533 15.6236C10.0712 15.2305 10.7587 15 11.5 15C13.433 15 15 16.567 15 18.5C15 20.433 13.433 22 11.5 22C9.567 22 8 20.433 8 18.5C8 18.0349 8.09072 17.591 8.25544 17.185L4.04189 13.8141C3.71735 13.9343 3.36634 14 3 14C1.34315 14 0 12.6569 0 11C0 9.34315 1.34315 8 3 8C3.36634 8 3.71735 8.06566 4.04189 8.18586L8.25544 4.81503C8.09072 4.40903 8 3.96511 8 3.5ZM11.5 17C10.6716 17 10 17.6716 10 18.5C10 19.3284 10.6716 20 11.5 20C12.3284 20 13 19.3284 13 18.5C13 17.6716 12.3284 17 11.5 17Z"/></svg>