<svg version="1.1" baseProfile="full" xmlns="http://www.w3.org/2000/svg" xmlns:xlink="http://www.w3.org/1999/xlink" xmlns:ev="http://www.w3.org/2001/xml-events" xml:space="preserve" x="0px" y="0px" width="14px" height="12px"  viewBox="0 0 14 12" preserveAspectRatio="none" shape-rendering="geometricPrecision">"<path d="M8 9C8 10.6569 9.34315 12 11 12C12.6569 12 14 10.6569 14 9C14 7.34315 12.6569 6 11 6C9.34315 6 8 7.34315 8 9ZM12 9C12 9.55228 11.5523 10 11 10C10.4477 10 10 9.55228 10 9C10 8.44772 10.4477 8 11 8C11.5523 8 12 8.44772 12 9Z" fill="#101010"></path><path d="M0 3C0 4.65685 1.34315 6 3 6C4.65685 6 6 4.65685 6 3C6 1.34315 4.65685 0 3 0C1.34315 0 0 1.34315 0 3ZM4 3C4 3.55228 3.55228 4 3 4C2.44772 4 2 3.55228 2 3C2 2.44772 2.44772 2 3 2C3.55228 2 4 2.44772 4 3Z" fill="#101010"></path><path d="M12.1179 0L4.1179 12H1.88184L9.88184 0H12.1179Z" fill="#101010"></path></svg>