<svg version="1.1" baseProfile="full" xmlns="http://www.w3.org/2000/svg" xmlns:xlink="http://www.w3.org/1999/xlink" xmlns:ev="http://www.w3.org/2001/xml-events" xml:space="preserve" x="0px" y="0px" width="12px" height="10px"  viewBox="0 0 12 10" preserveAspectRatio="none" shape-rendering="geometricPrecision">"<path fill="#4f68eb" d="M11.000,2.000 L1.000,2.000 C0.448,2.000 0.000,1.552 0.000,1.000 C0.000,0.448 0.448,-0.000 1.000,-0.000 L11.000,-0.000 C11.552,-0.000 12.000,0.448 12.000,1.000 C12.000,1.552 11.552,2.000 11.000,2.000 ZM1.000,4.000 L6.000,4.000 C6.552,4.000 7.000,4.448 7.000,5.000 C7.000,5.552 6.552,6.000 6.000,6.000 L1.000,6.000 C0.448,6.000 0.000,5.552 0.000,5.000 C0.000,4.448 0.448,4.000 1.000,4.000 ZM1.000,8.000 L6.000,8.000 C6.552,8.000 7.000,8.448 7.000,9.000 C7.000,9.552 6.552,10.000 6.000,10.000 L1.000,10.000 C0.448,10.000 0.000,9.552 0.000,9.000 C0.000,8.448 0.448,8.000 1.000,8.000 Z"/></svg>