<svg version="1.1" baseProfile="full" xmlns="http://www.w3.org/2000/svg" xmlns:xlink="http://www.w3.org/1999/xlink" xmlns:ev="http://www.w3.org/2001/xml-events" xml:space="preserve" x="0px" y="0px" width="18px" height="18px"  viewBox="0 0 18 18" preserveAspectRatio="none" shape-rendering="geometricPrecision"><path fill="#fff" d="m9 7.58578644 7.2928932-7.29289322c.3905243-.39052429 1.0236893-.39052429 1.4142136 0s.3905243 1.02368927 0 1.41421356l-7.2928932 7.29289322 7.2928932 7.2928932c.3905243.3905243.3905243 1.0236893 0 1.4142136s-1.0236893.3905243-1.4142136 0l-7.2928932-7.2928932-7.29289322 7.2928932c-.39052429.3905243-1.02368927.3905243-1.41421356 0-.39052429-.3905243-.39052429-1.0236893 0-1.4142136l7.29289322-7.2928932-7.29289322-7.29289322c-.39052429-.39052429-.39052429-1.02368927 0-1.41421356.39052429-.39052429 1.02368927-.39052429 1.41421356 0z"/></svg>