<svg version="1.1" baseProfile="full" xmlns="http://www.w3.org/2000/svg" xmlns:xlink="http://www.w3.org/1999/xlink" xmlns:ev="http://www.w3.org/2001/xml-events" xml:space="preserve" x="0px" y="0px" width="15px" height="10px"  viewBox="0 0 15 10" preserveAspectRatio="none" shape-rendering="geometricPrecision"><path fill="#fff" d="M14.714,1.667 L6.809,9.572 C6.776,9.620 6.756,9.673 6.714,9.715 C6.518,9.912 6.258,10.003 6.000,9.996 C5.742,10.003 5.482,9.912 5.285,9.715 C5.243,9.673 5.223,9.620 5.190,9.572 L0.285,4.667 C-0.096,4.285 -0.096,3.667 0.285,3.286 C0.667,2.905 1.285,2.905 1.666,3.286 L6.000,7.619 L13.333,0.286 C13.715,-0.096 14.333,-0.096 14.714,0.286 C15.096,0.667 15.096,1.285 14.714,1.667 Z"/></svg>