<svg version="1.1" baseProfile="full" xmlns="http://www.w3.org/2000/svg" xmlns:xlink="http://www.w3.org/1999/xlink" xmlns:ev="http://www.w3.org/2001/xml-events" xml:space="preserve" x="0px" y="0px" width="23px" height="21px"  viewBox="0 0 23 21" preserveAspectRatio="none" shape-rendering="geometricPrecision">"<path fill="#ffffff" d="M0 2H2.3132L7.06665 14.359C7.21519 14.7452 7.58623 15 8 15H18C18.4089 15 18.7766 14.751 18.9285 14.3714L22.9285 4.37139C23.0517 4.0633 23.0141 3.71414 22.8281 3.43937C22.642 3.1646 22.3318 3 22 3H9V5H20.523L17.323 13H8.6868L3.93335 0.641021C3.78481 0.254829 3.41377 0 3 0H0V2ZM7 19.0001C7 17.8955 7.89543 17.0001 9 17.0001C10.1046 17.0001 11 17.8955 11 19.0001C11 20.1047 10.1046 21.0001 9 21.0001C7.89543 21.0001 7 20.1047 7 19.0001ZM15 19.0001C15 17.8955 15.8954 17.0001 17 17.0001C18.1046 17.0001 19 17.8955 19 19.0001C19 20.1047 18.1046 21.0001 17 21.0001C15.8954 21.0001 15 20.1047 15 19.0001Z"/></svg>