<svg version="1.1" baseProfile="full" xmlns="http://www.w3.org/2000/svg" xmlns:xlink="http://www.w3.org/1999/xlink" xmlns:ev="http://www.w3.org/2001/xml-events" xml:space="preserve" x="0px" y="0px" width="20px" height="18px"  viewBox="0 0 20 18" preserveAspectRatio="none" shape-rendering="geometricPrecision">"<path fill="#2c2c2c" d="M3.9593 5.12417C3.9593 5.12417 3.95167 1.67427 3.95167 0H5.95167L5.94404 5.12417C7.66971 5.56457 8.95909 7.12626 8.95909 9C8.95909 10.871 7.67351 12.4308 5.95167 12.8739V18H3.95167V12.8739C2.22981 12.4308 0.944221 10.871 0.944221 9C0.944221 7.12625 2.23362 5.56455 3.9593 5.12417ZM4.95166 11C6.05623 11 6.95909 10.1046 6.95909 9C6.95909 7.89543 6.05623 7 4.95166 7C3.84709 7 2.94422 7.89543 2.94422 9C2.94422 10.1046 3.84709 11 4.95166 11ZM16.9849 12.8758C16.9849 12.8758 16.9926 16.3317 16.9926 18H14.9926C14.9926 16.3317 15.0002 12.8758 15.0002 12.8758C13.2745 12.4354 11.9851 10.8738 11.9851 9C11.9851 7.12901 13.2707 5.56917 14.9926 5.12612V0H16.9926V5.12612C18.7144 5.56917 20 7.12901 20 9C20 10.8737 18.7106 12.4354 16.9849 12.8758ZM15.9926 7C14.888 7 13.9851 7.89543 13.9851 9C13.9851 10.1046 14.888 11 15.9926 11C17.0971 11 18 10.1046 18 9C18 7.89543 17.0971 7 15.9926 7Z"/></svg>