<svg version="1.1" baseProfile="full" xmlns="http://www.w3.org/2000/svg" xmlns:xlink="http://www.w3.org/1999/xlink" xmlns:ev="http://www.w3.org/2001/xml-events" xml:space="preserve" x="0px" y="0px" width="86px" height="13px"  viewBox="0 0 86 13" preserveAspectRatio="none" shape-rendering="geometricPrecision"><path fill="#000" opacity="0.15" d="M85.7,4.8l-4.6-0.7L79,0l-2.1,4.2l-4.6,0.7l3.3,3.2l-0.8,4.6l4.1-2.2l4.1,2.2l-0.8-4.6L85.7,4.8z M79,9.4l-2.8,1.5l0.5-3.1l-2.3-2.2l3.1-0.5L79,2.3l1.4,2.8l3.1,0.5l-2.3,2.2l0.5,3.1L79,9.4z"/><path fill="#000" opacity="0.15" d="M27.1,4.2L25,0l-2.1,4.2l-4.6,0.7l3.3,3.2l-0.8,4.6l4.1-2.2l4.1,2.2l-0.8-4.6l3.3-3.2L27.1,4.2z M27.8,10.8L25,9.4l-2.8,1.5l0.5-3.1l-2.3-2.2l3.1-0.5L25,2.3l1.4,2.8l3.1,0.5l-2.3,2.2L27.8,10.8z"/><path fill="#000" opacity="0.15" d="M9.1,4.2L7,0L4.9,4.2L0.3,4.8l3.3,3.2l-0.8,4.6L7,10.5l4.1,2.2l-0.8-4.6l3.3-3.2L9.1,4.2z M9.8,10.8L7,9.4l-2.8,1.5l0.5-3.1L2.5,5.5l3.1-0.5L7,2.3l1.4,2.8l3.1,0.5L9.3,7.7L9.8,10.8z"/><path fill="#000" opacity="0.15" d="M63.1,4.2L61,0l-2.1,4.2l-4.6,0.7l3.3,3.2l-0.8,4.6l4.1-2.2l4.1,2.2l-0.8-4.6l3.3-3.2L63.1,4.2z M63.8,10.8L61,9.4l-2.8,1.5l0.5-3.1l-2.3-2.2l3.1-0.5L61,2.3l1.4,2.8l3.1,0.5l-2.3,2.2L63.8,10.8z"/><path fill="#000" opacity="0.15" d="M45.1,4.2L43,0l-2.1,4.2l-4.6,0.7l3.3,3.2l-0.8,4.6l4.1-2.2l4.1,2.2l-0.8-4.6l3.3-3.2L45.1,4.2z M45.8,10.8L43,9.4l-2.8,1.5l0.5-3.1l-2.3-2.2l3.1-0.5L43,2.3l1.4,2.8l3.1,0.5l-2.3,2.2L45.8,10.8z"/></svg>