<svg version="1.1" baseProfile="full" xmlns="http://www.w3.org/2000/svg" xmlns:xlink="http://www.w3.org/1999/xlink" xmlns:ev="http://www.w3.org/2001/xml-events" xml:space="preserve" x="0px" y="0px" width="16px" height="16px"  viewBox="0 0 16 16" preserveAspectRatio="none" shape-rendering="geometricPrecision"><path d="M13.6949 1.25984C14.0854 0.869311 14.7186 0.869311 15.1091 1.25984C15.4996 1.65036 15.4996 2.28352 15.1091 2.67405L9.45223 8.3309L15.1091 13.9878C15.4996 14.3783 15.4996 15.0114 15.1091 15.402C14.7186 15.7925 14.0854 15.7925 13.6949 15.402L8.03802 9.74512L2.38116 15.402C1.99064 15.7925 1.35747 15.7925 0.966951 15.402C0.576426 15.0114 0.576426 14.3783 0.966951 13.9878L6.62381 8.3309L0.966952 2.67405C0.576428 2.28352 0.576428 1.65036 0.966952 1.25984C1.35748 0.869311 1.99064 0.869311 2.38117 1.25984L8.03802 6.91669L13.6949 1.25984Z" fill="#fff"/></svg>