<svg version="1.1" baseProfile="full" xmlns="http://www.w3.org/2000/svg" xmlns:xlink="http://www.w3.org/1999/xlink" xmlns:ev="http://www.w3.org/2001/xml-events" xml:space="preserve" x="0px" y="0px" width="22px" height="22px"  viewBox="0 0 22 22" preserveAspectRatio="none" shape-rendering="geometricPrecision"><path d="M20.7721 5.57603C19.7468 8.24299 17.8389 9.81246 16.3437 10.9751C15.5654 11.5802 14.9661 12.0261 14.535 12.4798C14.1237 12.9128 14 13.2185 14 13.5V20.5C14 20.8788 13.786 21.225 13.4472 21.3944C13.1084 21.5638 12.703 21.5273 12.4 21.3L8.4 18.3C8.14819 18.1111 8 17.8148 8 17.5V13.5C8 13.203 7.87526 12.8929 7.48473 12.4665C6.96638 11.9005 6.33437 11.4441 5.73463 10.9692C3.64178 9.30983 2.04166 7.46074 0.977985 5H3.15913C4.09313 7.0392 5.57968 8.29397 6.97721 9.40207C7.66904 9.95062 8.41208 10.5178 8.95963 11.1157C9.52833 11.7366 10 12.5084 10 13.5V17L12 18.5V13.5C12 12.4928 12.5013 11.7167 13.085 11.1023C13.6488 10.5088 14.4144 9.94173 15.116 9.39622C16.5805 8.25746 18.0919 6.9742 18.9053 4.85836C19.2529 3.95429 19.3668 2.96053 19.445 2H0.5V0H20.5C21.0502 0 21.5079 0.464364 21.4999 1.0145L21.4998 1.01821C21.4735 2.53621 21.3188 4.1539 20.7721 5.57603Z" fill="#101010"/></svg>