<svg version="1.1" baseProfile="full" xmlns="http://www.w3.org/2000/svg" xmlns:xlink="http://www.w3.org/1999/xlink" xmlns:ev="http://www.w3.org/2001/xml-events" xml:space="preserve" x="0px" y="0px" width="40px" height="40px"  viewBox="0 0 40 40" preserveAspectRatio="none" shape-rendering="geometricPrecision"><path d="M23.0003 22C24.5413 22 25.5015 20.3279 24.725 18.9965L14.2247 0.990875C13.4542 -0.33029 11.5458 -0.330293 10.7753 0.990872L0.274994 18.9965C-0.501472 20.3279 0.458662 22 1.99966 22H23.0003Z" fill="#EB3C3C"/><path d="M11.2887 7.94864C11.2608 7.3779 11.7161 6.8999 12.2875 6.8999H12.5125C13.0839 6.8999 13.5392 7.3779 13.5113 7.94864L13.2128 14.0668C13.1916 14.5003 12.834 14.8409 12.4 14.8409C11.966 14.8409 11.6084 14.5003 11.5872 14.0668L11.2887 7.94864ZM12.4 19.1039C12.0583 19.1039 11.7708 18.9912 11.5375 18.7659C11.3125 18.5319 11.2 18.2502 11.2 17.9209C11.2 17.5916 11.3125 17.3186 11.5375 17.1019C11.7625 16.8766 12.05 16.7639 12.4 16.7639C12.75 16.7639 13.0375 16.8766 13.2625 17.1019C13.4875 17.3186 13.6 17.5916 13.6 17.9209C13.6 18.2502 13.4833 18.5319 13.25 18.7659C13.025 18.9912 12.7417 19.1039 12.4 19.1039Z" fill="white"/></svg>