<svg version="1.1" baseProfile="full" xmlns="http://www.w3.org/2000/svg" xmlns:xlink="http://www.w3.org/1999/xlink" xmlns:ev="http://www.w3.org/2001/xml-events" xml:space="preserve" x="0px" y="0px" width="21px" height="18px"  viewBox="0 0 21 18" preserveAspectRatio="none" shape-rendering="geometricPrecision"><path opacity=".3" fill-rule="evenodd" clip-rule="evenodd" d="M12 13.5C12 15.9853 14.0147 18 16.5 18C18.9853 18 21 15.9853 21 13.5C21 11.0147 18.9853 9 16.5 9C14.0147 9 12 11.0147 12 13.5ZM18 13.5C18 14.3284 17.3284 15 16.5 15C15.6716 15 15 14.3284 15 13.5C15 12.6716 15.6716 12 16.5 12C17.3284 12 18 12.6716 18 13.5Z" fill="white"/><path opacity=".3" fill-rule="evenodd" clip-rule="evenodd" d="M0 4.5C0 6.98528 2.01472 9 4.5 9C6.98528 9 9 6.98528 9 4.5C9 2.01472 6.98528 0 4.5 0C2.01472 0 0 2.01472 0 4.5ZM6 4.5C6 5.32843 5.32843 6 4.5 6C3.67157 6 3 5.32843 3 4.5C3 3.67157 3.67157 3 4.5 3C5.32843 3 6 3.67157 6 4.5Z" fill="white"/><path opacity=".3" fill-rule="evenodd" clip-rule="evenodd" d="M18.1769 0L6.17686 18H2.82275L14.8228 0H18.1769Z" fill="white"/></svg>