<svg width="70" height="40" viewBox="0 0 70 40" fill="none" xmlns="http://www.w3.org/2000/svg">
<g clip-path="url(#clip0_38_2161)">
<path fill-rule="evenodd" clip-rule="evenodd" d="M42.5285 24.9001L39.924 25.8517L39.6662 25.8388L39.4908 25.6518L38.1409 21.9811H31.8232L30.4874 25.6441L30.3133 25.8311L30.0554 25.8452L27.4549 24.8936L27.3427 24.8318L27.2641 24.7312L27.2305 24.6023L27.2473 24.4733L32.5052 10.6078C32.7169 10.127 33.0639 9.71808 33.5039 9.43102C33.944 9.14396 34.458 8.99111 34.9833 8.99111C35.5087 8.99111 36.0227 9.14396 36.4627 9.43102C36.9027 9.71808 37.2498 10.127 37.4614 10.6078L42.7361 24.4888L42.7529 24.6177L42.7194 24.7403L42.6407 24.8421L42.5285 24.9001ZM35.3985 14.1174L34.9846 12.9505V12.9415L32.6058 19.3727H37.3661L35.3985 14.1174ZM27.2434 28.4433H42.7567C43.0866 28.4538 43.3993 28.5926 43.6284 28.8301C43.8583 29.0686 43.9867 29.387 43.9867 29.7184C43.9867 30.0497 43.8583 30.3682 43.6284 30.6068C43.3999 30.8451 43.0868 30.9841 42.7567 30.9935H27.2434C26.9134 30.9841 26.6003 30.8451 26.3718 30.6068C26.1993 30.4295 26.082 30.206 26.0341 29.9633C25.9863 29.7207 26.01 29.4693 26.1023 29.2399C26.1946 29.0104 26.3516 28.8127 26.5542 28.6709C26.7568 28.529 26.9962 28.449 27.2434 28.4407V28.4433Z" fill="white"/>
</g>
<defs>
<clipPath id="clip0_38_2161">
<rect width="17.9708" height="22" fill="white" transform="translate(26.0146 9)"/>
</clipPath>
</defs>
</svg>

