<svg version="1.1" baseProfile="full" xmlns="http://www.w3.org/2000/svg" xmlns:xlink="http://www.w3.org/1999/xlink" xmlns:ev="http://www.w3.org/2001/xml-events" xml:space="preserve" x="0px" y="0px" width="86px" height="13px"  viewBox="0 0 86 13" preserveAspectRatio="none" shape-rendering="geometricPrecision">"<path fill="#a4c815" d="M7.00017 0L9.05742 4.16844L13.6576 4.83688L10.3289 8.08156L11.1147 12.6631L7.00017 10.5L2.88567 12.6631L3.67147 8.08156L0.342773 4.83688L4.94292 4.16844L7.00017 0Z"/><path fill="#a4c815" d="M25.0002 0L27.0574 4.16844L31.6576 4.83688L28.3289 8.08156L29.1147 12.6631L25.0002 10.5L20.8857 12.6631L21.6715 8.08156L18.3428 4.83688L22.9429 4.16844L25.0002 0Z"/><path fill="#a4c815" d="M43.0002 0L45.0574 4.16844L49.6576 4.83688L46.3289 8.08156L47.1147 12.6631L43.0002 10.5L38.8857 12.6631L39.6715 8.08156L36.3428 4.83688L40.9429 4.16844L43.0002 0Z"/><path fill="#a4c815" d="M61.0002 0L63.0574 4.16844L67.6576 4.83688L64.3289 8.08156L65.1147 12.6631L61.0002 10.5L56.8857 12.6631L57.6715 8.08156L54.3428 4.83688L58.9429 4.16844L61.0002 0Z"/><path fill="#a4c815" d="M79.0002 0L81.0574 4.16844L85.6576 4.83688L82.3289 8.08156L83.1147 12.6631L79.0002 10.5L74.8857 12.6631L75.6715 8.08156L72.3428 4.83688L76.9429 4.16844L79.0002 0Z"/></svg>