<svg version="1.1" baseProfile="full" xmlns="http://www.w3.org/2000/svg" xmlns:xlink="http://www.w3.org/1999/xlink" xmlns:ev="http://www.w3.org/2001/xml-events" xml:space="preserve" x="0px" y="0px" width="26px" height="16px"  viewBox="0 0 26 16" preserveAspectRatio="none" shape-rendering="geometricPrecision">"<path fill-rule="evenodd" clip-rule="evenodd" d="M3.18505 8C3.28158 8.14268 3.39967 8.31134 3.53884 8.4999C3.99608 9.11937 4.67476 9.94532 5.55721 10.7689C7.33215 12.4255 9.84954 14 12.9999 14C16.1503 14 18.6676 12.4255 20.4426 10.7689C21.325 9.94532 22.0037 9.11937 22.4609 8.4999C22.6001 8.31134 22.7182 8.14268 22.8147 8C22.7182 7.85732 22.6001 7.68866 22.4609 7.5001C22.0037 6.88063 21.325 6.05468 20.4426 5.23106C18.6676 3.57445 16.1503 2 12.9999 2C9.84954 2 7.33215 3.57445 5.55721 5.23106C4.67476 6.05468 3.99608 6.88063 3.53884 7.5001C3.39967 7.68866 3.28158 7.85732 3.18505 8ZM24.8677 7.50314L24.8622 7.49362L24.8504 7.47333C24.7813 7.35579 24.5188 6.92028 24.0701 6.3124C23.5586 5.61937 22.7998 4.69532 21.8072 3.76894C19.8321 1.92555 16.8495 0 12.9999 0C9.15025 0 6.16765 1.92555 4.19258 3.76894C3.20003 4.69532 2.44121 5.61937 1.9297 6.3124C1.64685 6.69561 1.37223 7.08724 1.13386 7.50002L1.13257 7.50226L1.13206 7.50314C1.13206 7.50314 1.13165 7.50386 1.9999 8L1.13206 7.50314L0.848145 8L1.13165 8.49614L1.9999 8C1.13165 8.49614 1.13165 8.49614 1.13165 8.49614L1.13257 8.49774C1.37112 8.91139 1.64635 9.30372 1.9297 9.6876C2.44121 10.3806 3.20003 11.3047 4.19258 12.2311C6.16765 14.0745 9.15025 16 12.9999 16C16.8495 16 19.8321 14.0745 21.8072 12.2311C22.7998 11.3047 23.5586 10.3806 24.0701 9.6876C24.3536 9.30344 24.6291 8.91084 24.8677 8.49686C24.9858 8.28976 24.5 8.5 24.3421 7.93678C24.3878 7.82992 24.5 7.5 24.8677 7.50314ZM24.8677 8.49686L25.1516 8L24.8677 7.50314C24.5 7.5 24.3878 7.82992 24.3421 7.93678C24.5 8.5 24.9858 8.28976 24.8677 8.49686ZM12.9999 6C11.8953 6 10.9999 6.89543 10.9999 8C10.9999 9.10457 11.8953 10 12.9999 10C14.1045 10 14.9999 9.10457 14.9999 8C14.9999 6.89543 14.1045 6 12.9999 6ZM8.9999 8C8.9999 5.79086 10.7908 4 12.9999 4C15.209 4 16.9999 5.79086 16.9999 8C16.9999 10.2091 15.209 12 12.9999 12C10.7908 12 8.9999 10.2091 8.9999 8Z" fill="#2c2c2c"/></svg>