<svg version="1.1" baseProfile="full" xmlns="http://www.w3.org/2000/svg" xmlns:xlink="http://www.w3.org/1999/xlink" xmlns:ev="http://www.w3.org/2001/xml-events" xml:space="preserve" x="0px" y="0px" width="22px" height="21px"  viewBox="0 0 22 21" preserveAspectRatio="none" shape-rendering="geometricPrecision">"<path fill-rule="evenodd" clip-rule="evenodd" d="M7 6C7 3.79086 8.79086 2 11 2C13.2091 2 15 3.79086 15 6C15 8.20914 13.2091 10 11 10C8.79086 10 7 8.20914 7 6ZM14.83 10.6188C16.1557 9.51822 17 7.85771 17 6C17 2.68629 14.3137 0 11 0C7.68629 0 5 2.68629 5 6C5 7.85771 5.84426 9.51822 7.17003 10.6188C2.75983 12.1312 0 16.2412 0 21H2C2 16.0189 5.58507 12 11 12C16.4149 12 20 16.0189 20 21H22C22 16.2412 19.2402 12.1312 14.83 10.6188Z" fill="#a4c815"/></svg>