<svg version="1.1" baseProfile="full" xmlns="http://www.w3.org/2000/svg" xmlns:xlink="http://www.w3.org/1999/xlink" xmlns:ev="http://www.w3.org/2001/xml-events" xml:space="preserve" x="0px" y="0px" width="22px" height="21px"  viewBox="0 0 22 21" preserveAspectRatio="none" shape-rendering="geometricPrecision">"<path fill="#4f68eb" d="M10.12 0C4.87329 0 0.619995 4.2533 0.619995 9.5C0.619995 14.7467 4.87329 19 10.12 19C12.4005 19 14.4932 18.1965 16.1307 16.8571L19.9444 20.704L21.3647 19.296L17.5378 15.4357C18.8407 13.8096 19.62 11.7458 19.62 9.5C19.62 4.2533 15.3667 0 10.12 0ZM2.62 9.5C2.62 5.35786 5.97786 2 10.12 2C14.2621 2 17.62 5.35786 17.62 9.5C17.62 13.6421 14.2621 17 10.12 17C5.97786 17 2.62 13.6421 2.62 9.5Z"/></svg>