<svg version="1.1" baseProfile="full" xmlns="http://www.w3.org/2000/svg" xmlns:xlink="http://www.w3.org/1999/xlink" xmlns:ev="http://www.w3.org/2001/xml-events" xml:space="preserve" x="0px" y="0px" width="22px" height="22px"  viewBox="0 0 22 22" preserveAspectRatio="none" shape-rendering="geometricPrecision"><path fill="#fff" d="M12,2C9.2,2,7,4.2,7,7c0,2.4,1.7,4.4,4,4.9V19h2v-7.1c2.3-0.5,4-2.5,4-4.9C17,4.2,14.8,2,12,2z M12,10  c-1.7,0-3-1.3-3-3s1.3-3,3-3s3,1.3,3,3S13.7,10,12,10z"/><path fill="#fff" d="M9,14.2v2c-2.9,0.4-5,1.2-5,1.8c0,0.8,3.6,2,8,2c4.4,0,8-1.2,8-2c0-0.6-2.1-1.4-5-1.8v-2c4.1,0.4,7,1.8,7,3.8  c0,2.5-4.5,4-10,4c-5.5,0-10-1.5-10-4C2,16,4.9,14.6,9,14.2z"/></svg>