<svg width="64" height="64" viewBox="0 0 64 64" fill="none" xmlns="http://www.w3.org/2000/svg">
<rect width="64" height="64" fill="#005FF9"/>
<path d="M35.9106 32C35.9095 33.0368 35.4971 34.0309 34.764 34.764C34.0309 35.4971 33.0368 35.9095 32 35.9106C30.9632 35.9095 29.9691 35.4971 29.236 34.764C28.5029 34.0309 28.0905 33.0368 28.0894 32C28.0905 30.9632 28.5029 29.9691 29.236 29.236C29.9691 28.5029 30.9632 28.0905 32 28.0894C33.0368 28.0905 34.0309 28.5029 34.764 29.236C35.4971 29.9691 35.9095 30.9632 35.9106 32V32ZM32 19C24.8321 19 19 24.8321 19 32C19 39.1679 24.8321 45 32 45C34.626 45 37.1586 44.2184 39.3231 42.7388L39.3604 42.7128L37.6087 40.6767L37.5794 40.6962C35.9157 41.7672 33.9786 42.3362 32 42.335C26.3011 42.335 21.665 37.6989 21.665 32C21.665 26.3011 26.3011 21.665 32 21.665C37.6989 21.665 42.335 26.3011 42.335 32C42.335 32.7386 42.2529 33.4861 42.0913 34.2214C41.7646 35.5628 40.8254 35.9739 40.1201 35.9195C39.4108 35.8618 38.5813 35.3564 38.5756 34.1198V32C38.5756 28.3738 35.6262 25.4244 32 25.4244C28.3738 25.4244 25.4244 28.3738 25.4244 32C25.4244 35.6262 28.3738 38.5756 32 38.5756C32.8665 38.5776 33.7248 38.407 34.5247 38.0738C35.3246 37.7405 36.0501 37.2512 36.6589 36.6345C37.012 37.1883 37.4894 37.6521 38.0531 37.989C38.6169 38.326 39.2515 38.5268 39.9064 38.5756C40.9762 38.6589 42.0393 38.3473 42.8948 37.6997C43.674 37.1082 44.2557 36.2526 44.5775 35.2248C44.6287 35.0591 44.7229 34.6788 44.7237 34.6764L44.7262 34.6626C44.9155 33.8379 45 33.0156 45 32C45 24.8321 39.1679 19 32 19Z" fill="#FF9E00"/>
</svg>

