<svg width="64" height="64" viewBox="0 0 64 64" fill="none" xmlns="http://www.w3.org/2000/svg">
<rect width="64" height="64" fill="#FF8800"/>
<path fill-rule="evenodd" clip-rule="evenodd" d="M38.4194 26.4086C38.4194 29.6965 35.5336 32.371 31.9836 32.371C28.4344 32.371 25.5479 29.6965 25.5479 26.4086C25.5479 23.1197 28.4344 20.4444 31.9836 20.4444C35.5336 20.4444 38.4194 23.1197 38.4194 26.4086ZM34.6484 26.4086C34.6484 25.0469 33.4531 23.9397 31.9837 23.9397C30.5154 23.9397 29.3189 25.0469 29.3189 26.4086C29.3189 27.7693 30.5154 28.8772 31.9837 28.8772C33.4531 28.8772 34.6484 27.7693 34.6484 26.4086Z" fill="white"/>
<path d="M38.3411 35.8046C37.1774 36.4819 35.914 36.9622 34.604 37.2388L38.2017 40.5731C38.9387 41.2546 38.9387 42.3615 38.2017 43.0438C37.4654 43.7261 36.2721 43.7261 35.5366 43.0438L31.9993 39.7673L28.4651 43.0438C28.0966 43.3846 27.6137 43.5552 27.1309 43.5552C26.6487 43.5552 26.1666 43.3846 25.7981 43.0438C25.0619 42.3615 25.0619 41.2553 25.7973 40.5731L29.3955 37.2388C28.0855 36.9622 26.822 36.4812 25.6583 35.8046C24.7777 35.2901 24.5131 34.2121 25.068 33.3953C25.6214 32.5774 26.7851 32.3312 27.6673 32.8457C30.3019 34.3816 33.696 34.3819 36.3322 32.8457C37.2144 32.3312 38.3777 32.5774 38.9322 33.3953C39.4871 34.2114 39.2218 35.2901 38.3411 35.8046Z" fill="white"/>
</svg>

