<svg width="70" height="40" viewBox="0 0 70 40" fill="none" xmlns="http://www.w3.org/2000/svg">
<g clip-path="url(#clip0_38_2153)">
<path fill-rule="evenodd" clip-rule="evenodd" d="M42.6414 24.6138C42.4795 23.7656 42.0414 22.9949 41.3955 22.4219C41.1719 22.2048 40.9182 22.0211 40.6422 21.8763C40.5015 21.7943 40.3542 21.7244 40.2016 21.6675C39.8089 21.4983 39.3808 21.4274 38.9545 21.461C39.2867 21.3412 39.6411 21.2959 39.9927 21.3284C40.2922 21.3717 40.5872 21.4419 40.874 21.5383C41.1048 21.6664 41.3436 21.7967 41.5755 21.9282C42.0898 20.0984 41.9897 18.1504 41.2905 16.383C40.7272 14.8847 39.8098 13.545 38.6165 12.4781C37.4084 11.342 35.9062 10.5667 34.2802 10.2402C33.3358 10.0559 32.3638 10.0646 31.4228 10.2656C30.6258 10.4764 29.8766 10.8382 29.2161 11.3314C28.6037 11.8259 28.0849 12.426 27.6841 13.1034C27.5654 13.2674 27.4611 13.4415 27.3726 13.6236C27.293 13.8209 27.2031 14.01 27.1131 14.2004C26.6172 15.5474 26.4587 16.9955 26.6516 18.4179C26.7655 19.3051 27.0016 20.1724 27.353 20.995C27.5422 21.3607 27.7141 21.7425 27.9229 22.0874C28.1301 22.4212 28.3557 22.7432 28.5989 23.0518C29.1157 23.6312 29.6997 24.1469 30.3384 24.5883C31.7989 25.5823 33.5074 26.1499 35.2723 26.2276C35.2737 26.1018 35.2469 25.9772 35.1939 25.8631C35.1627 25.7374 35.1511 25.5955 35.1154 25.472C35.0819 25.1785 35.0819 24.8819 35.1154 24.5883L35.2458 24.7695L35.3761 24.9253C35.4441 25.0522 35.5213 25.174 35.6068 25.2898C35.7792 25.5148 35.9801 25.7164 36.2044 25.8896C36.6514 26.2556 37.1502 26.5534 37.6845 26.7733C38.288 27.027 38.9282 27.1827 39.5809 27.2347C40.2527 27.3217 40.9195 27.443 41.5789 27.598C42.1588 27.7659 42.7167 28.0017 43.2412 28.3006C43.4928 28.4392 43.7355 28.5933 43.9679 28.762C44.09 28.836 44.2035 28.9234 44.306 29.0228C44.4421 29.077 44.5021 29.2061 44.6428 29.2534C45.055 29.6315 45.4376 30.0408 45.7872 30.4774C45.9532 30.7176 46.1006 30.9702 46.2279 31.233C46.3224 31.3379 46.3501 31.5098 46.4355 31.6252L46.4955 31.8432L46.4608 32.067C46.2682 32.0947 46.3074 31.8905 46.2301 31.8063C46.1578 31.7097 46.0967 31.6052 46.0479 31.4948C45.7433 31.173 45.4711 30.8223 45.1388 30.5316C44.8184 30.231 44.4708 29.9607 44.1006 29.7241C43.3298 29.1835 42.4677 28.7865 41.5558 28.5521C40.4833 28.2574 39.3678 28.1512 38.2589 28.2383C37.7372 28.2962 37.2233 28.4099 36.7258 28.5774C36.2031 28.6936 35.6743 28.7807 35.1419 28.8381C33.0543 28.9461 30.9711 28.5534 29.0661 27.6927C28.241 27.325 27.4717 26.843 26.7808 26.261C26.4335 25.9875 26.1122 25.6825 25.8211 25.3497C25.5227 25.0234 25.2612 24.6651 25.0412 24.2815C24.7902 23.898 24.5648 23.4984 24.3664 23.0853C24.1817 22.6347 24.0276 22.1722 23.905 21.701C23.7415 21.1944 23.637 20.6707 23.5935 20.1402C23.5843 19.9822 23.5139 19.6787 23.5151 19.4365L23.5416 19.358C23.5035 19.108 23.5035 18.8536 23.5416 18.6036C23.5452 18.052 23.6059 17.5023 23.7227 16.9632C23.8139 16.4673 23.9443 15.9793 24.1126 15.5039C24.2672 15.0425 24.4714 14.6157 24.6571 14.1774C24.7828 13.9893 24.8775 13.7736 24.9951 13.5798C25.0943 13.3745 25.2431 13.2199 25.3331 13.003L25.5407 12.7446C25.5811 12.6293 25.6884 12.5785 25.7219 12.4574L25.9295 12.1966L26.1372 11.9371C26.4475 11.6314 26.7243 11.2923 27.0461 10.9993C27.368 10.7062 27.7279 10.434 28.0602 10.141C28.2701 10.0406 28.4224 9.88025 28.63 9.77527C28.7881 9.63107 29.0188 9.55847 29.1756 9.41196C29.5876 9.18953 30.0112 8.98927 30.4446 8.81208C30.8825 8.6155 31.3339 8.45046 31.7954 8.3183C32.8514 8.0261 33.9453 7.89428 35.0405 7.92725H35.1177C37.0931 7.95788 39.0169 8.56228 40.6549 9.66684C42.1047 10.6372 43.2698 11.9763 44.0303 13.5464C44.7775 15.136 45.1098 16.8889 44.9963 18.6417C44.8827 20.3945 44.3269 22.0899 43.3808 23.5697C43.2774 23.7632 43.1557 23.9463 43.0174 24.1165L42.8363 24.3749L42.7325 24.5065L42.7129 24.5399L42.6806 24.5584L42.6414 24.6138ZM42.0196 25.2909C41.7629 25.1015 41.5863 24.8229 41.5247 24.5099C41.4901 24.3913 41.4901 24.2652 41.5247 24.1465L41.5766 24.1201H41.7128L41.842 24.1708C41.9938 24.3609 42.1006 24.583 42.1546 24.8203V25.0752L42.0196 25.2909ZM39.7343 24.8491H39.7655C39.8675 24.8594 39.9665 24.8898 40.0568 24.9385C40.1471 24.9872 40.2269 25.0533 40.2916 25.1329C40.4237 25.2945 40.4867 25.5018 40.4669 25.7097C40.4563 25.8286 40.4076 25.9409 40.328 26.0299C40.2483 26.1189 40.1421 26.1797 40.0251 26.2034C39.8877 26.2088 39.7512 26.1782 39.6294 26.1145C39.5067 26.0525 39.4028 25.9589 39.3283 25.8435C39.2525 25.7287 39.2072 25.5965 39.1968 25.4593C39.1873 25.3213 39.2131 25.1832 39.2718 25.0579L39.4794 24.8941L39.7343 24.8491Z" fill="white"/>
</g>
<defs>
<clipPath id="clip0_38_2153">
<rect width="23" height="24.1178" fill="white" transform="translate(23.5 7.94109)"/>
</clipPath>
</defs>
</svg>

