<svg width="90" height="40" viewBox="0 0 90 40" fill="none" xmlns="http://www.w3.org/2000/svg">
<g clip-path="url(#clip0_38_2179)">
<path d="M12.6583 16.2389C12.4019 16.3534 12.1732 16.5891 12.0762 16.8383C12.0277 16.9662 12 18.1648 12 20.3601V23.6866H13.5937V21.5991H15.714L16.2683 22.6428L16.8157 23.6866H17.7373C18.2362 23.6866 18.652 23.6664 18.652 23.6462C18.652 23.6192 18.3679 23.0671 18.0145 22.4206L17.3839 21.2355L17.5502 21.1345C18.4857 20.5351 18.9014 19.3567 18.652 18.0099C18.4926 17.1884 18.0838 16.6093 17.4532 16.34C17.0998 16.1851 17.0375 16.1783 14.9795 16.1649C13.3165 16.1514 12.8246 16.1649 12.6583 16.2389ZM16.6772 17.7608C16.788 17.8012 16.8989 17.9224 16.9613 18.0773C17.0929 18.3803 17.1068 19.1547 16.989 19.3837C16.691 19.9426 16.3238 20.0503 14.7578 20.0503H13.5937V17.6935H15.0419C15.8387 17.6935 16.5732 17.7204 16.6772 17.7608ZM21.0079 16.2053C20.3219 16.4073 19.8299 16.8854 19.622 17.5386C19.4558 18.0638 19.2756 19.3028 19.2756 19.9022C19.2756 20.4813 19.4419 21.6597 19.5874 22.1378C19.8438 22.9661 20.2803 23.3903 21.0841 23.5923C21.4306 23.6799 21.7978 23.6933 22.9758 23.6731C24.3269 23.6529 24.4655 23.6327 24.805 23.4913C25.7821 23.0671 26.2047 21.9897 26.2047 19.9156C26.1978 17.7339 25.7613 16.6564 24.7288 16.2861C24.3616 16.1581 24.2022 16.1447 22.754 16.1514C21.8879 16.1514 21.1049 16.1783 21.0079 16.2053ZM24.2299 17.8483C24.6942 18.4678 24.6872 21.5183 24.2161 21.9695C24.0775 22.1109 21.4098 22.1176 21.292 21.9829C20.9663 21.5991 20.8485 19.3837 21.098 18.3466C21.2019 17.9359 21.2573 17.8079 21.3751 17.7608C21.4583 17.7271 22.1165 17.7069 22.8302 17.7137C24.0013 17.7271 24.1468 17.7406 24.2299 17.8483ZM27.7014 16.2928C27.549 16.3804 27.3619 16.5554 27.2857 16.6834C27.1471 16.9123 27.1402 17.0335 27.1194 19.7271C27.1055 21.6058 27.1263 22.6226 27.1748 22.8112C27.2926 23.2287 27.5975 23.5317 28.0132 23.6125C28.4428 23.7068 31.4986 23.7068 32.046 23.6192C33.1131 23.4509 33.6605 22.8449 33.7367 21.7338C33.7852 21.1075 33.6813 20.6429 33.411 20.2254L33.2101 19.9224L33.4665 19.4375C33.7159 18.9729 33.7228 18.9258 33.7228 18.2726C33.7228 17.7137 33.6882 17.5318 33.5635 17.2558C33.3625 16.8315 33.12 16.5824 32.6835 16.3602L32.337 16.1783L30.1543 16.1581C27.9924 16.1447 27.9717 16.1447 27.7014 16.2928ZM31.9906 17.7743C32.0876 17.8685 32.1499 18.3197 32.0876 18.5285C32.0529 18.6497 31.9421 18.818 31.845 18.9123C31.6718 19.0739 31.6441 19.0739 30.2167 19.0941L28.7685 19.1143V17.6867L30.3553 17.7069C31.2284 17.7204 31.9628 17.7473 31.9906 17.7743ZM31.6857 20.7776C31.9628 20.8853 32.1153 21.1749 32.1084 21.5587C32.1014 21.8011 32.0668 21.9223 31.9836 21.9829C31.8936 22.0503 31.457 22.0705 30.3137 22.0705H28.7685V20.6429L30.1405 20.6698C30.8888 20.69 31.5887 20.7372 31.6857 20.7776ZM36.058 16.2861C35.3858 16.542 35.0463 16.9999 34.783 18.0099C34.6513 18.5217 34.6306 18.7911 34.6306 19.9156C34.6306 21.1412 34.6444 21.2759 34.8176 21.9021C35.0324 22.663 35.2334 22.993 35.6353 23.2826C36.1342 23.626 36.2866 23.6529 38.0536 23.6529C39.8205 23.6529 39.9729 23.626 40.4718 23.2826C40.8737 22.993 41.0747 22.663 41.2895 21.9021C41.4627 21.2759 41.4765 21.1412 41.4765 19.9156C41.4765 18.7911 41.4558 18.5217 41.3241 18.0099C41.0608 16.9864 40.7213 16.5352 40.0284 16.2861C39.675 16.1581 39.5017 16.1447 38.0328 16.1514C36.5846 16.1514 36.3906 16.1649 36.058 16.2861ZM39.3978 17.7608C39.5849 17.8281 39.668 18.0369 39.7997 18.7978C39.966 19.7338 39.8205 21.4981 39.5433 21.9088C39.4394 22.0705 39.4325 22.0705 38.0536 22.0705C36.4321 22.0705 36.5291 22.1176 36.349 21.222C36.0926 19.983 36.3005 17.9157 36.6885 17.7608C36.8964 17.68 39.1761 17.68 39.3978 17.7608Z" fill="white"/>
<path d="M42.7723 16.4252L42.5575 16.6339V23.3004L42.7584 23.4957C42.9386 23.6641 43.0148 23.691 43.3682 23.691C43.7077 23.691 43.8047 23.6641 43.9295 23.5361C44.172 23.287 44.2205 22.9974 44.2205 21.8257V20.7281H45.2391L45.7518 21.1591C46.7773 22.0143 47.1307 22.4722 47.1307 22.9301C47.1307 23.186 47.1654 23.2668 47.3663 23.4621C47.5742 23.6641 47.6435 23.691 47.9553 23.691C48.2463 23.691 48.3433 23.6573 48.5304 23.4957C48.7521 23.3072 48.7591 23.2802 48.7521 22.7887C48.7452 22.3644 48.7106 22.2096 48.5304 21.8527C48.2879 21.3813 47.5811 20.5396 47.1377 20.1961L46.8466 19.9739L47.297 19.5766C47.8375 19.0918 48.3364 18.4655 48.572 17.974C48.7036 17.6911 48.7452 17.4891 48.7521 17.112C48.7591 16.6272 48.7521 16.6003 48.5304 16.4117C48.3295 16.2366 48.2532 16.2164 47.8652 16.2164C47.4633 16.2164 47.401 16.2366 47.2762 16.3915C47.1792 16.5127 47.1307 16.6676 47.1307 16.8696C47.1307 17.0312 47.0892 17.2602 47.0337 17.3814C46.9159 17.6642 46.3893 18.2231 45.7518 18.7551L45.2391 19.1793H44.2205V18.0817C44.2205 17.4824 44.1858 16.8763 44.1512 16.7417C44.0473 16.378 43.7978 16.2164 43.3474 16.2164C43.0356 16.2164 42.9525 16.2434 42.7723 16.4252ZM51.5931 16.3107C50.6577 16.6003 50.1449 17.2467 49.7846 18.5665C49.6183 19.1591 49.6044 19.3611 49.5767 21.0715C49.5351 23.0917 49.5629 23.3139 49.8816 23.5563C50.1103 23.7314 50.6992 23.7381 50.914 23.5698C51.1635 23.3745 51.2189 23.186 51.2189 22.4856V21.8055H54.8221V22.553C54.8221 23.287 54.8221 23.3004 55.023 23.4957C55.2032 23.6641 55.2794 23.691 55.6189 23.691C55.9723 23.691 56.0347 23.6708 56.2218 23.4755L56.4227 23.26L56.4019 21.1052C56.3742 19.112 56.3603 18.9032 56.2218 18.4521C55.8892 17.3881 55.4041 16.7215 54.7528 16.4252C54.3925 16.2636 54.2955 16.2501 53.1244 16.2366C52.2375 16.2232 51.794 16.2434 51.5931 16.3107ZM53.9836 17.8393C54.3647 17.9672 54.6904 18.782 54.7805 19.7988L54.8151 20.2567H51.1981L51.2466 19.718C51.3298 18.7686 51.7109 17.8797 52.0643 17.8124C52.4038 17.7517 53.7758 17.7719 53.9836 17.8393ZM58.5984 16.3107C57.9194 16.5195 57.5383 16.8427 57.3027 17.4285C57.1849 17.7248 57.1503 17.9403 57.1503 18.4723C57.1503 19.5497 57.4829 20.1625 58.2658 20.5328C58.5777 20.681 58.7024 20.6944 60.0674 20.7281C61.481 20.7618 61.5433 20.7685 61.6958 20.9167C61.8967 21.1119 61.9175 21.6843 61.7304 21.9604L61.6126 22.1422H59.7487C57.9887 22.1422 57.8778 22.149 57.7115 22.2769C57.3235 22.5732 57.3096 23.2196 57.6769 23.5227L57.8847 23.691H59.9011C61.0236 23.691 62.0353 23.6573 62.1739 23.6237C62.555 23.5227 62.9638 23.1321 63.2202 22.6271C63.435 22.2028 63.4488 22.1422 63.4488 21.4352C63.4488 20.7752 63.4281 20.654 63.2687 20.3241C63.04 19.8527 62.7282 19.5025 62.3887 19.3409C62.167 19.2332 61.9106 19.2063 60.5525 19.1793C58.7162 19.1389 58.7717 19.1659 58.7717 18.4723C58.7717 17.7719 58.6677 17.8056 60.8781 17.7652L62.7906 17.7315L62.9777 17.5497C63.144 17.3881 63.1647 17.3073 63.1925 16.7955L63.2271 16.2164L61.0514 16.2232C59.4992 16.2232 58.7994 16.2501 58.5984 16.3107ZM65.4583 16.3107C65.3059 16.3578 65.091 16.4454 64.9733 16.4992C64.0794 16.9572 63.7052 18.4925 64.218 19.5834C64.4328 20.0413 64.6684 20.2837 65.1118 20.5126C65.4444 20.6877 65.4999 20.6944 66.8441 20.7146C67.6063 20.7214 68.3131 20.7685 68.417 20.8022C68.6596 20.8965 68.7773 21.2399 68.715 21.6439C68.6388 22.1557 68.6942 22.1422 66.5947 22.1422H64.7169L64.5159 22.3375C64.3427 22.5126 64.315 22.5867 64.315 22.9166C64.315 23.2466 64.3427 23.3206 64.5159 23.4957L64.7169 23.691H66.8095C69.1377 23.691 69.1931 23.6843 69.6781 23.2331C70.1008 22.8358 70.2948 22.3644 70.3295 21.59C70.3711 20.6944 70.1978 20.1692 69.6851 19.6776C69.4564 19.4554 69.2277 19.3005 69.0545 19.2534C68.9021 19.213 68.2092 19.1793 67.4955 19.1793C66.7818 19.1793 66.1096 19.1591 65.9918 19.1389C65.7424 19.0918 65.6315 18.883 65.6315 18.4723C65.6315 18.0615 65.7424 17.8528 65.9918 17.8056C66.1096 17.7854 66.9481 17.7652 67.8627 17.7652C70.0177 17.7652 70.0662 17.7383 70.0662 16.7215V16.2164L67.9043 16.2232C66.3591 16.2232 65.6523 16.2501 65.4583 16.3107ZM73.0526 16.3511C72.8517 16.4184 72.5745 16.5599 72.4429 16.6609C71.8885 17.0716 71.3896 18.149 71.2511 19.2467C71.1471 20.0143 71.154 23.0041 71.2511 23.2802C71.3481 23.5429 71.6252 23.691 72.034 23.691C72.2835 23.691 72.3944 23.6506 72.5745 23.4957L72.8032 23.3004L72.824 22.553L72.8517 21.8055H76.3578L76.3855 22.553L76.4063 23.3004L76.635 23.4957C76.8151 23.6573 76.9191 23.691 77.2032 23.691C77.4873 23.691 77.5912 23.6573 77.7714 23.4957L78 23.3004L77.9931 21.186C77.9862 19.2534 77.9792 19.0379 77.8407 18.5531C77.5288 17.442 77.0646 16.7686 76.3925 16.4454C75.9975 16.2568 75.9629 16.2501 74.7087 16.2366C73.5792 16.2164 73.3852 16.2299 73.0526 16.3511ZM75.8243 18.0346C76.1014 18.3511 76.3093 19.0244 76.3509 19.6978L76.3925 20.2567H72.8378V19.846C72.8378 18.9908 73.2259 17.9942 73.6139 17.8326C73.704 17.7989 74.189 17.7787 74.7018 17.7854L75.6233 17.7989L75.8243 18.0346Z" fill="white"/>
</g>
<defs>
<clipPath id="clip0_38_2179">
<rect width="66" height="7.7" fill="white" transform="translate(12 16.15)"/>
</clipPath>
</defs>
</svg>

