<svg width="70" height="40" viewBox="0 0 70 40" fill="none" xmlns="http://www.w3.org/2000/svg">
<g clip-path="url(#clip0_38_2157)">
<path fill-rule="evenodd" clip-rule="evenodd" d="M45.8052 18.0208L43.667 19.693V19.7306C43.667 19.8172 43.667 19.9038 43.667 19.9903C43.6652 21.4457 43.2924 22.8766 42.5838 24.1478C41.8752 25.4191 40.8543 26.4887 39.6174 27.2557C40.0333 27.909 40.355 28.6177 40.5731 29.3608C42.2155 28.4085 43.5792 27.0419 44.528 25.3976C45.4769 23.7533 45.9778 21.8888 45.9806 19.9903V19.9732V19.955C45.9782 19.3054 45.9179 18.6574 45.8006 18.0185" fill="white"/>
<path fill-rule="evenodd" clip-rule="evenodd" d="M30.1023 27.0803C29.7629 27.7736 29.3067 28.4032 28.7535 28.9416C30.4838 30.1206 32.5126 30.7856 34.6051 30.8598C36.6975 30.934 38.7683 30.4143 40.5777 29.3608C40.3596 28.6177 40.0378 27.909 39.622 27.2557C38.1875 28.1483 36.5255 28.6067 34.8362 28.5756C33.147 28.5445 31.5029 28.0251 30.1023 27.0803" fill="white"/>
<path fill-rule="evenodd" clip-rule="evenodd" d="M24.3018 17.4854C23.7943 19.6211 23.9484 21.8606 24.7435 23.9068C25.5386 25.9529 26.9371 27.7089 28.7535 28.9416C29.3066 28.4032 29.7629 27.7736 30.1023 27.0803C28.6521 26.1063 27.5354 24.7112 26.9026 23.083C26.2697 21.4548 26.1512 19.6717 26.563 17.9741C25.8428 17.6829 25.078 17.5176 24.3018 17.4854" fill="white"/>
<path fill-rule="evenodd" clip-rule="evenodd" d="M30.8542 9.90789C29.2378 10.5571 27.7999 11.583 26.6602 12.9003C25.5205 14.2175 24.712 15.788 24.3019 17.4808C25.078 17.513 25.8429 17.6784 26.563 17.9695C26.9162 16.5424 27.6277 15.229 28.6301 14.1536C29.6326 13.0781 30.8929 12.2763 32.2917 11.8239C31.9068 11.1196 31.4227 10.4743 30.8542 9.90789" fill="white"/>
<path fill-rule="evenodd" clip-rule="evenodd" d="M34.9971 9.11051C33.5777 9.10813 32.1712 9.37886 30.8541 9.90791C31.4227 10.4744 31.9068 11.1197 32.2917 11.8239C33.5327 11.4226 34.8477 11.3031 36.1408 11.4741C37.4339 11.6452 38.6726 12.1024 39.7666 12.8127L41.6553 11.3318C39.738 9.88392 37.3997 9.10298 34.9971 9.10821" fill="white"/>
<path fill-rule="evenodd" clip-rule="evenodd" d="M30.9486 20.3389L34.9971 22.8518V19.9903L30.9486 17.4842V20.3321V20.3389Z" fill="white"/>
<path fill-rule="evenodd" clip-rule="evenodd" d="M44.8848 15.239L34.9972 22.8518V19.9903L43.6705 13.3116C44.1411 13.9101 44.5481 14.5561 44.8848 15.239V15.239Z" fill="white"/>
</g>
<defs>
<clipPath id="clip0_38_2157">
<rect width="22" height="21.7494" fill="white" transform="translate(24 9.12531)"/>
</clipPath>
</defs>
</svg>

