<svg width="70" height="40" viewBox="0 0 70 40" fill="none" xmlns="http://www.w3.org/2000/svg">
<g clip-path="url(#clip0_38_2169)">
<path fill-rule="evenodd" clip-rule="evenodd" d="M39.0599 30.4876C36.9823 30.4981 34.9482 29.8916 33.2155 28.745C31.4829 27.5984 30.1296 25.9632 29.3272 24.0467C28.5249 22.1301 28.3095 20.0185 28.7084 17.9795C29.1074 15.9404 30.1027 14.0658 31.5681 12.5929C33.0336 11.1201 34.9034 10.1155 36.9404 9.70639C38.9775 9.29729 41.0901 9.50208 43.0106 10.2949C44.9311 11.0877 46.573 12.4328 47.7283 14.1597C48.8835 15.8866 49.5001 17.9176 49.4999 19.9953C49.5067 22.771 48.4107 25.4358 46.4528 27.4035C44.495 29.3711 41.8357 30.4805 39.0599 30.4876ZM39.0599 15.9145C38.2519 15.9104 37.4609 16.1462 36.7871 16.592C36.1132 17.0379 35.5869 17.6738 35.2749 18.4191C34.9628 19.1644 34.879 19.9856 35.0341 20.7786C35.1892 21.5716 35.5762 22.3007 36.1461 22.8735C36.7159 23.4463 37.443 23.837 38.2352 23.9962C39.0274 24.1553 39.849 24.0757 40.5959 23.7675C41.3428 23.4592 41.9813 22.9362 42.4307 22.2647C42.88 21.5931 43.1199 20.8033 43.1199 19.9953C43.1213 19.4608 43.0174 18.9312 42.8141 18.4368C42.6108 17.9425 42.3121 17.493 41.9351 17.1141C41.5581 16.7351 41.1102 16.4341 40.6168 16.2283C40.1235 16.0225 39.5945 15.9159 39.0599 15.9145V15.9145Z" fill="white"/>
<path fill-rule="evenodd" clip-rule="evenodd" d="M24.8302 26.9855L20.5 12.9994H28.62V26.9855H24.8302Z" fill="white"/>
</g>
<defs>
<clipPath id="clip0_38_2169">
<rect width="29" height="20.989" fill="white" transform="translate(20.5 9.50548)"/>
</clipPath>
</defs>
</svg>

